<svg width="13" height="14" viewBox="0 0 13 14" fill="none" xmlns="http://www.w3.org/2000/svg">
<g id="Component 8">
<path id="Vector" d="M6.125 7C7.10938 6.98177 7.9388 6.64453 8.61328 5.98828C9.26953 5.3138 9.60677 4.48438 9.625 3.5C9.60677 2.51562 9.26953 1.6862 8.61328 1.01172C7.9388 0.355469 7.10938 0.0182295 6.125 0C5.14062 0.0182295 4.3112 0.355469 3.63672 1.01172C2.98047 1.6862 2.64323 2.51562 2.625 3.5C2.64323 4.48438 2.98047 5.3138 3.63672 5.98828C4.3112 6.64453 5.14062 6.98177 6.125 7ZM6.125 0.875C6.8724 0.893229 7.49219 1.14844 7.98438 1.64062C8.47656 2.13281 8.73177 2.7526 8.75 3.5C8.73177 4.2474 8.47656 4.86719 7.98438 5.35938C7.49219 5.85156 6.8724 6.10677 6.125 6.125C5.3776 6.10677 4.75781 5.85156 4.26562 5.35938C3.77344 4.86719 3.51823 4.2474 3.5 3.5C3.51823 2.7526 3.77344 2.13281 4.26562 1.64062C4.75781 1.14844 5.3776 0.893229 6.125 0.875ZM7.51953 8.3125H4.73047C3.39974 8.34896 2.28776 8.8138 1.39453 9.70703C0.501302 10.6003 0.0364583 11.7122 0 13.043C0 13.3164 0.0911458 13.5443 0.273438 13.7266C0.455729 13.9089 0.683594 14 0.957031 14H11.293C11.5664 14 11.7943 13.9089 11.9766 13.7266C12.1589 13.5443 12.25 13.3164 12.25 13.043C12.2135 11.7122 11.7487 10.6003 10.8555 9.70703C9.96224 8.8138 8.85026 8.34896 7.51953 8.3125ZM11.293 13.125H0.957031C0.902344 13.125 0.875 13.0977 0.875 13.043C0.911458 11.9492 1.28516 11.0378 1.99609 10.3086C2.72526 9.59766 3.63672 9.22396 4.73047 9.1875H7.51953C8.61328 9.22396 9.52474 9.59766 10.2539 10.3086C10.9648 11.0378 11.3385 11.9492 11.375 13.043C11.375 13.0977 11.3477 13.125 11.293 13.125Z" fill="#015C88"/>
</g>
</svg>
