<svg width="13" height="14" viewBox="0 0 13 14" fill="none" xmlns="http://www.w3.org/2000/svg">
<g id="Component 8">
<path id="Vector" d="M3.0625 0C3.33594 0.0182295 3.48177 0.164062 3.5 0.4375V1.75H8.75V0.4375C8.76823 0.164062 8.91406 0.0182295 9.1875 0C9.46094 0.0182295 9.60677 0.164062 9.625 0.4375V1.75H10.5C10.9922 1.76823 11.4023 1.94141 11.7305 2.26953C12.0586 2.59766 12.2318 3.00781 12.25 3.5V12.25C12.2318 12.7422 12.0586 13.1523 11.7305 13.4805C11.4023 13.8086 10.9922 13.9818 10.5 14H1.75C1.25781 13.9818 0.847656 13.8086 0.519531 13.4805C0.191406 13.1523 0.0182292 12.7422 0 12.25V3.5C0.0182292 3.00781 0.191406 2.59766 0.519531 2.26953C0.847656 1.94141 1.25781 1.76823 1.75 1.75H2.625V0.4375C2.64323 0.164062 2.78906 0.0182295 3.0625 0ZM11.375 5.25H0.875V12.25C0.875 12.5052 0.957031 12.7148 1.12109 12.8789C1.28516 13.043 1.49479 13.125 1.75 13.125H10.5C10.7552 13.125 10.9648 13.043 11.1289 12.8789C11.293 12.7148 11.375 12.5052 11.375 12.25V5.25ZM10.5 2.625H1.75C1.49479 2.625 1.28516 2.70703 1.12109 2.87109C0.957031 3.03516 0.875 3.24479 0.875 3.5V4.375H11.375V3.5C11.375 3.24479 11.293 3.03516 11.1289 2.87109C10.9648 2.70703 10.7552 2.625 10.5 2.625Z" fill="#015C88"/>
</g>
</svg>
