<svg width="14" height="14" viewBox="0 0 14 14" fill="none" xmlns="http://www.w3.org/2000/svg">
<g id="Component 8">
<path id="Vector" d="M3.95215 0C4.22559 0.0182295 4.37142 0.164062 4.38965 0.4375V1.75H9.63965V0.4375C9.65788 0.164062 9.80371 0.0182295 10.0771 0C10.3506 0.0182295 10.4964 0.164062 10.5146 0.4375V1.75H11.3896C11.8818 1.76823 12.292 1.94141 12.6201 2.26953C12.9482 2.59766 13.1214 3.00781 13.1396 3.5V12.25C13.1214 12.7422 12.9482 13.1523 12.6201 13.4805C12.292 13.8086 11.8818 13.9818 11.3896 14H2.63965C2.14746 13.9818 1.7373 13.8086 1.40918 13.4805C1.08105 13.1523 0.907878 12.7422 0.889648 12.25V3.5C0.907878 3.00781 1.08105 2.59766 1.40918 2.26953C1.7373 1.94141 2.14746 1.76823 2.63965 1.75H3.51465V0.4375C3.53288 0.164062 3.67871 0.0182295 3.95215 0ZM12.2646 5.25H1.76465V12.25C1.76465 12.5052 1.84668 12.7148 2.01074 12.8789C2.1748 13.043 2.38444 13.125 2.63965 13.125H11.3896C11.6449 13.125 11.8545 13.043 12.0186 12.8789C12.1826 12.7148 12.2646 12.5052 12.2646 12.25V5.25ZM11.3896 2.625H2.63965C2.38444 2.625 2.1748 2.70703 2.01074 2.87109C1.84668 3.03516 1.76465 3.24479 1.76465 3.5V4.375H12.2646V3.5C12.2646 3.24479 12.1826 3.03516 12.0186 2.87109C11.8545 2.70703 11.6449 2.625 11.3896 2.625Z" fill="#DA2127"/>
</g>
</svg>
