<svg width="16" height="16" viewBox="0 0 16 16" fill="none" xmlns="http://www.w3.org/2000/svg">
<g id="Component 8">
<path id="Vector" d="M14 2H2C1.4375 2.02083 0.96875 2.21875 0.59375 2.59375C0.21875 2.96875 0.0208333 3.4375 0 4V12C0.0208333 12.5625 0.21875 13.0312 0.59375 13.4062C0.96875 13.7812 1.4375 13.9792 2 14H14C14.5625 13.9792 15.0312 13.7812 15.4062 13.4062C15.7812 13.0312 15.9792 12.5625 16 12V4C15.9792 3.4375 15.7812 2.96875 15.4062 2.59375C15.0312 2.21875 14.5625 2.02083 14 2ZM2 3H14C14.2917 3 14.5312 3.09375 14.7188 3.28125C14.9062 3.46875 15 3.70833 15 4V5.125L8.90625 9.6875C8.63542 9.89583 8.33333 10 8 10C7.66667 10 7.36458 9.89583 7.09375 9.6875L1 5.125V4C1 3.70833 1.09375 3.46875 1.28125 3.28125C1.46875 3.09375 1.70833 3 2 3ZM15 12C15 12.2917 14.9062 12.5312 14.7188 12.7188C14.5312 12.9062 14.2917 13 14 13H2C1.70833 13 1.46875 12.9062 1.28125 12.7188C1.09375 12.5312 1 12.2917 1 12V6.34375L6.5 10.5C6.95833 10.8333 7.45833 11 8 11C8.54167 11 9.04167 10.8333 9.5 10.5L15 6.34375V12Z" fill="#DA2127"/>
</g>
</svg>
