<svg width="120" height="32" viewBox="0 0 120 32" fill="none" xmlns="http://www.w3.org/2000/svg">
<g id="Group 15" opacity="0.3">
<g id="Group 11">
<g id="Group 9">
<g id="Group 8">
<circle id="Ellipse 1" cy="1" r="1" fill="white"/>
<circle id="Ellipse 2" cx="8" cy="1" r="1" fill="white"/>
<circle id="Ellipse 3" cx="16" cy="1" r="1" fill="white"/>
<circle id="Ellipse 4" cx="24" cy="1" r="1" fill="white"/>
<circle id="Ellipse 5" cx="32" cy="1" r="1" fill="white"/>
<circle id="Ellipse 6" cx="40" cy="1" r="1" fill="white"/>
<circle id="Ellipse 7" cx="48" cy="1" r="1" fill="white"/>
<circle id="Ellipse 8" cx="56" cy="1" r="1" fill="white"/>
</g>
</g>
<g id="Group 10">
<g id="Group 8_2">
<circle id="Ellipse 1_2" cx="63" cy="1" r="1" fill="white"/>
<circle id="Ellipse 2_2" cx="71" cy="1" r="1" fill="white"/>
<circle id="Ellipse 3_2" cx="79" cy="1" r="1" fill="white"/>
<circle id="Ellipse 4_2" cx="87" cy="1" r="1" fill="white"/>
<circle id="Ellipse 5_2" cx="95" cy="1" r="1" fill="white"/>
<circle id="Ellipse 6_2" cx="103" cy="1" r="1" fill="white"/>
<circle id="Ellipse 7_2" cx="111" cy="1" r="1" fill="white"/>
<circle id="Ellipse 8_2" cx="119" cy="1" r="1" fill="white"/>
</g>
</g>
</g>
<g id="Group 12">
<g id="Group 9_2">
<g id="Group 8_3">
<circle id="Ellipse 1_3" cy="11" r="1" fill="white"/>
<circle id="Ellipse 2_3" cx="8" cy="11" r="1" fill="white"/>
<circle id="Ellipse 3_3" cx="16" cy="11" r="1" fill="white"/>
<circle id="Ellipse 4_3" cx="24" cy="11" r="1" fill="white"/>
<circle id="Ellipse 5_3" cx="32" cy="11" r="1" fill="white"/>
<circle id="Ellipse 6_3" cx="40" cy="11" r="1" fill="white"/>
<circle id="Ellipse 7_3" cx="48" cy="11" r="1" fill="white"/>
<circle id="Ellipse 8_3" cx="56" cy="11" r="1" fill="white"/>
</g>
</g>
<g id="Group 10_2">
<g id="Group 8_4">
<circle id="Ellipse 1_4" cx="63" cy="11" r="1" fill="white"/>
<circle id="Ellipse 2_4" cx="71" cy="11" r="1" fill="white"/>
<circle id="Ellipse 3_4" cx="79" cy="11" r="1" fill="white"/>
<circle id="Ellipse 4_4" cx="87" cy="11" r="1" fill="white"/>
<circle id="Ellipse 5_4" cx="95" cy="11" r="1" fill="white"/>
<circle id="Ellipse 6_4" cx="103" cy="11" r="1" fill="white"/>
<circle id="Ellipse 7_4" cx="111" cy="11" r="1" fill="white"/>
<circle id="Ellipse 8_4" cx="119" cy="11" r="1" fill="white"/>
</g>
</g>
</g>
<g id="Group 13">
<g id="Group 9_3">
<g id="Group 8_5">
<circle id="Ellipse 1_5" cy="21" r="1" fill="white"/>
<circle id="Ellipse 2_5" cx="8" cy="21" r="1" fill="white"/>
<circle id="Ellipse 3_5" cx="16" cy="21" r="1" fill="white"/>
<circle id="Ellipse 4_5" cx="24" cy="21" r="1" fill="white"/>
<circle id="Ellipse 5_5" cx="32" cy="21" r="1" fill="white"/>
<circle id="Ellipse 6_5" cx="40" cy="21" r="1" fill="white"/>
<circle id="Ellipse 7_5" cx="48" cy="21" r="1" fill="white"/>
<circle id="Ellipse 8_5" cx="56" cy="21" r="1" fill="white"/>
</g>
</g>
<g id="Group 10_3">
<g id="Group 8_6">
<circle id="Ellipse 1_6" cx="63" cy="21" r="1" fill="white"/>
<circle id="Ellipse 2_6" cx="71" cy="21" r="1" fill="white"/>
<circle id="Ellipse 3_6" cx="79" cy="21" r="1" fill="white"/>
<circle id="Ellipse 4_6" cx="87" cy="21" r="1" fill="white"/>
<circle id="Ellipse 5_6" cx="95" cy="21" r="1" fill="white"/>
<circle id="Ellipse 6_6" cx="103" cy="21" r="1" fill="white"/>
<circle id="Ellipse 7_6" cx="111" cy="21" r="1" fill="white"/>
<circle id="Ellipse 8_6" cx="119" cy="21" r="1" fill="white"/>
</g>
</g>
</g>
<g id="Group 14">
<g id="Group 9_4">
<g id="Group 8_7">
<circle id="Ellipse 1_7" cy="31" r="1" fill="white"/>
<circle id="Ellipse 2_7" cx="8" cy="31" r="1" fill="white"/>
<circle id="Ellipse 3_7" cx="16" cy="31" r="1" fill="white"/>
<circle id="Ellipse 4_7" cx="24" cy="31" r="1" fill="white"/>
<circle id="Ellipse 5_7" cx="32" cy="31" r="1" fill="white"/>
<circle id="Ellipse 6_7" cx="40" cy="31" r="1" fill="white"/>
<circle id="Ellipse 7_7" cx="48" cy="31" r="1" fill="white"/>
<circle id="Ellipse 8_7" cx="56" cy="31" r="1" fill="white"/>
</g>
</g>
<g id="Group 10_4">
<g id="Group 8_8">
<circle id="Ellipse 1_8" cx="63" cy="31" r="1" fill="white"/>
<circle id="Ellipse 2_8" cx="71" cy="31" r="1" fill="white"/>
<circle id="Ellipse 3_8" cx="79" cy="31" r="1" fill="white"/>
<circle id="Ellipse 4_8" cx="87" cy="31" r="1" fill="white"/>
<circle id="Ellipse 5_8" cx="95" cy="31" r="1" fill="white"/>
<circle id="Ellipse 6_8" cx="103" cy="31" r="1" fill="white"/>
<circle id="Ellipse 7_8" cx="111" cy="31" r="1" fill="white"/>
<circle id="Ellipse 8_8" cx="119" cy="31" r="1" fill="white"/>
</g>
</g>
</g>
</g>
</svg>
