<svg width="15" height="16" viewBox="0 0 15 16" fill="none" xmlns="http://www.w3.org/2000/svg">
<g id="Component 8">
<path id="Vector" d="M9.69995 6C9.67912 6.70833 9.43953 7.30208 8.9812 7.78125C8.50203 8.23958 7.90828 8.47917 7.19995 8.5C6.49162 8.47917 5.89787 8.23958 5.4187 7.78125C4.96037 7.30208 4.72078 6.70833 4.69995 6C4.72078 5.29167 4.96037 4.69792 5.4187 4.21875C5.89787 3.76042 6.49162 3.52083 7.19995 3.5C7.90828 3.52083 8.50203 3.76042 8.9812 4.21875C9.43953 4.69792 9.67912 5.29167 9.69995 6ZM7.19995 7.5C7.61662 7.47917 7.97078 7.33333 8.26245 7.0625C8.53328 6.77083 8.67912 6.41667 8.69995 6C8.67912 5.58333 8.53328 5.22917 8.26245 4.9375C7.97078 4.66667 7.61662 4.52083 7.19995 4.5C6.78328 4.52083 6.42912 4.66667 6.13745 4.9375C5.86662 5.22917 5.72078 5.58333 5.69995 6C5.72078 6.41667 5.86662 6.77083 6.13745 7.0625C6.42912 7.33333 6.78328 7.47917 7.19995 7.5ZM13.2 6C13.1583 6.9375 12.825 8.02083 12.2 9.25C11.5541 10.4792 10.825 11.6667 10.0125 12.8125C9.19995 13.9792 8.51245 14.9062 7.94995 15.5938C7.74162 15.8438 7.49162 15.9688 7.19995 15.9688C6.90828 15.9688 6.65828 15.8438 6.44995 15.5938C5.88745 14.9062 5.18953 13.9792 4.3562 12.8125C3.5437 11.6667 2.82495 10.4792 2.19995 9.25C1.57495 8.02083 1.24162 6.9375 1.19995 6C1.24162 4.29167 1.82495 2.875 2.94995 1.75C4.07495 0.625 5.49162 0.041667 7.19995 0C8.90828 0.041667 10.325 0.625 11.45 1.75C12.575 2.875 13.1583 4.29167 13.2 6ZM7.19995 1C5.78328 1.04167 4.6062 1.53125 3.6687 2.46875C2.7312 3.40625 2.24162 4.58333 2.19995 6C2.19995 6.5 2.37703 7.15625 2.7312 7.96875C3.08537 8.80208 3.53328 9.66667 4.07495 10.5625C4.61662 11.4375 5.1687 12.25 5.7312 13C6.2937 13.7708 6.78328 14.4167 7.19995 14.9375C7.61662 14.4167 8.1062 13.7708 8.6687 13C9.2312 12.25 9.78328 11.4375 10.325 10.5625C10.8666 9.66667 11.3145 8.80208 11.6687 7.96875C12.0229 7.15625 12.2 6.5 12.2 6C12.1583 4.58333 11.6687 3.40625 10.7312 2.46875C9.7937 1.53125 8.61662 1.04167 7.19995 1Z" fill="#DA2127"/>
</g>
</svg>
