<svg width="16" height="16" viewBox="0 0 16 16" fill="none" xmlns="http://www.w3.org/2000/svg">
<g id="Component 8">
<path id="Vector" d="M15.1565 10.3438L11.969 8.96875C11.3232 8.73958 10.7711 8.875 10.3127 9.375L9.28149 10.625C7.59399 9.70833 6.29191 8.40625 5.37524 6.71875L6.62524 5.6875C7.12524 5.22917 7.26066 4.67708 7.03149 4.03125L5.65649 0.84375C5.51066 0.53125 5.29191 0.302083 5.00024 0.15625C4.70858 0.010417 4.39608 -0.03125 4.06274 0.03125L1.09399 0.71875C0.760661 0.802083 0.500244 0.96875 0.312744 1.21875C0.104411 1.46875 0.000244141 1.76042 0.000244141 2.09375C0.0210775 4.67708 0.656494 7.01042 1.90649 9.09375C3.13566 11.1979 4.80233 12.8646 6.90649 14.0938C8.98983 15.3438 11.3232 15.9792 13.9065 16C14.2398 16 14.5315 15.8958 14.7815 15.6875C15.0315 15.5 15.1982 15.2396 15.2815 14.9062L15.969 11.9375C16.0315 11.6042 15.9898 11.2917 15.844 11C15.6982 10.7083 15.469 10.4896 15.1565 10.3438ZM14.3127 14.6875C14.2502 14.875 14.1148 14.9792 13.9065 15C11.5107 14.9792 9.34399 14.3958 7.40649 13.25C5.46899 12.0833 3.91691 10.5312 2.75024 8.59375C1.60441 6.65625 1.02108 4.48958 1.00024 2.09375C1.02108 1.88542 1.12524 1.75 1.31274 1.6875L4.28149 1C4.30233 1 4.33358 1 4.37524 1C4.54191 1 4.66691 1.08333 4.75024 1.25L6.12524 4.4375C6.18774 4.625 6.14608 4.78125 6.00024 4.90625L4.40649 6.21875C4.21899 6.38542 4.17733 6.58333 4.28149 6.8125C4.80233 7.875 5.48983 8.82292 6.34399 9.65625C7.17733 10.5104 8.12524 11.1979 9.18774 11.7188C9.41691 11.8229 9.61483 11.7812 9.78149 11.5938L11.094 10C11.219 9.85417 11.3752 9.8125 11.5627 9.875L14.7502 11.25C14.9377 11.3542 15.0211 11.5104 15.0002 11.7188L14.3127 14.6875Z" fill="#DA2127"/>
</g>
</svg>
