<svg width="56" height="57" viewBox="0 0 56 57" fill="none" xmlns="http://www.w3.org/2000/svg">
<g id="Component 1">
<path id="Vector" d="M42.0448 6.17033C45.3298 6.17394 48.4792 7.4805 50.8021 9.80336C53.125 12.1262 54.4315 15.2756 54.4351 18.5607C54.4351 18.5811 54.4351 18.6023 54.4351 18.6227C54.4351 18.6636 54.4404 18.7249 54.445 18.8059C54.6992 23.3055 53.9637 35.4545 41.6717 51.0218C41.561 51.1616 41.4045 51.2578 41.2297 51.2935C41.055 51.3291 40.8733 51.3019 40.7167 51.2167C40.56 51.1315 40.4385 50.9936 40.3736 50.8275C40.3086 50.6615 40.3044 50.4778 40.3617 50.3089C40.3965 50.206 43.7558 40.1434 41.4605 30.9359C38.2277 30.7842 35.1826 29.3736 32.9763 27.0058C30.77 24.638 29.5777 21.5009 29.6544 18.2655C29.7312 15.03 31.0708 11.9529 33.3868 9.69239C35.7028 7.43181 38.8114 6.16713 42.0478 6.16882L42.0448 6.17033ZM52.9216 18.5175C52.9133 16.3681 52.2682 14.2694 51.068 12.4863C49.8677 10.7032 48.1661 9.31567 46.1779 8.49893C44.1897 7.68218 42.004 7.47281 39.8969 7.89727C37.7898 8.32173 35.8557 9.36098 34.3388 10.8838C32.8219 12.4066 31.7902 14.3447 31.3739 16.4535C30.9576 18.5622 31.1755 20.747 32 22.732C32.8244 24.7171 34.2186 26.4133 36.0063 27.6066C37.7941 28.7999 39.8953 29.4368 42.0448 29.4368C42.2105 29.4368 42.3716 29.4913 42.5034 29.5917C42.6352 29.6922 42.7304 29.8332 42.7743 29.993C44.5148 36.327 43.6612 42.9714 42.7962 47.0034C52.5463 33.3454 53.1585 22.9203 52.9307 18.8906C52.9204 18.7665 52.9174 18.642 52.9216 18.5175Z" fill="#015C88"/>
<path id="Vector_2" d="M13.9038 6.17033C17.1888 6.17394 20.3383 7.4805 22.6612 9.80336C24.984 12.1262 26.2906 15.2756 26.2942 18.5607C26.2942 18.5811 26.2942 18.6023 26.2942 18.6227C26.2942 18.6636 26.2995 18.7249 26.304 18.8059C26.5583 23.3055 25.8227 35.4545 13.5307 51.0218C13.42 51.1616 13.2635 51.2578 13.0888 51.2935C12.9141 51.3291 12.7323 51.3019 12.5757 51.2167C12.4191 51.1315 12.2976 50.9936 12.2326 50.8275C12.1677 50.6615 12.1635 50.4778 12.2208 50.3089C12.2556 50.206 15.6148 40.1434 13.3196 30.9359C10.0868 30.7842 7.0416 29.3736 4.83532 27.0058C2.62904 24.638 1.43678 21.5009 1.51349 18.2655C1.5902 15.03 2.92981 11.9529 5.24584 9.69239C7.56186 7.43181 10.6705 6.16713 13.9068 6.16882L13.9038 6.17033ZM24.7807 18.5175C24.7723 16.3681 24.1273 14.2694 22.927 12.4863C21.7268 10.7032 20.0251 9.31567 18.0369 8.49893C16.0487 7.68218 13.8631 7.47281 11.756 7.89727C9.64887 8.32173 7.71476 9.36098 6.19784 10.8838C4.68092 12.4066 3.6492 14.3447 3.23294 16.4535C2.81668 18.5622 3.03453 20.747 3.85901 22.732C4.68348 24.7171 6.07761 26.4133 7.86537 27.6066C9.65313 28.7999 11.7544 29.4368 13.9038 29.4368C14.0695 29.4368 14.2307 29.4913 14.3625 29.5917C14.4943 29.6922 14.5894 29.8332 14.6333 29.993C16.3739 36.327 15.5202 42.9714 14.6553 47.0034C24.4053 33.3454 25.0183 22.9203 24.7905 18.8906C24.78 18.7666 24.7767 18.642 24.7807 18.5175Z" fill="#015C88"/>
</g>
</svg>
