<svg width="50" height="50" viewBox="0 0 50 50" fill="none" xmlns="http://www.w3.org/2000/svg">
<g id="Component 1" clip-path="url(#clip0_43_211)">
<path id="Vector" fill-rule="evenodd" clip-rule="evenodd" d="M23.8116 21.0232L29.5408 22.6122L41.149 25.8316L44.2869 14.5676C45.8988 8.78191 42.4724 2.73054 36.6739 1.12214C30.8726 -0.486255 24.8104 2.92986 23.1958 8.71824L21.3369 15.398C21.3368 19.4786 22.4188 20.6385 23.8116 21.0232Z" fill="#3B9C43"/>
<path id="Vector_2" fill-rule="evenodd" clip-rule="evenodd" d="M39.3596 13.2001L36.2217 24.4641L41.149 25.8316L44.2869 14.5675C45.8988 8.78184 42.4725 2.73047 36.6739 1.12207C35.825 0.886816 34.9732 0.759472 34.127 0.729004C38.4385 3.12637 40.7356 8.25869 39.3596 13.2001Z" fill="#1F5FFF"/>
<path id="Vector_3" fill-rule="evenodd" clip-rule="evenodd" d="M41.1492 25.8317L36.2219 24.4642L33.084 35.7283C32.2434 38.7485 30.1902 41.1236 27.5934 42.4745C27.3492 43.0697 27.0606 43.6289 26.7277 44.1549C26.5418 44.4511 26.3421 44.7362 26.1284 45.0102C31.4081 45.6553 36.5464 42.3527 38.0112 37.0958L41.1492 25.8317Z" fill="#DDDAEC"/>
<path id="Vector_4" fill-rule="evenodd" clip-rule="evenodd" d="M14.573 12.4692C9.45703 12.4692 5.31201 16.6078 5.31201 21.7124C5.31201 25.3139 7.37344 28.431 10.3864 29.959C13.8351 31.4926 18.0716 31.4538 21.2927 28.0738C22.8686 26.4185 23.8368 24.1762 23.8368 21.7124C23.8368 21.4799 23.8285 21.2501 23.8118 21.0232C23.6509 18.8528 22.7409 16.8929 21.337 15.3981C19.6475 13.5959 17.2421 12.4692 14.573 12.4692Z" fill="#1F5FFF"/>
<path id="Vector_5" fill-rule="evenodd" clip-rule="evenodd" d="M17.4525 38.322L28.209 40.4508C29.2244 35.3738 26.5027 30.1418 21.5088 28.1569C21.4366 28.1293 21.3645 28.1016 21.2924 28.0739C20.2076 27.6697 19.095 27.4455 17.9935 27.393C15.2108 27.2546 12.4891 28.1902 10.3861 29.9592C9.53437 30.6706 8.78808 31.5205 8.17773 32.4921L17.4525 38.322Z" fill="#B1E4F9"/>
<path id="Vector_6" fill-rule="evenodd" clip-rule="evenodd" d="M26.7276 44.1547L17.4416 39.5234L6.69899 36.1987C5.68913 41.2702 8.41081 46.4994 13.3992 48.4815C14.7254 49.0074 16.096 49.2593 17.4415 49.2593H17.4609C20.8263 49.2566 24.0502 47.6952 26.1282 45.01C26.342 44.736 26.5417 44.4509 26.7276 44.1547Z" fill="#B1E4F9"/>
<path id="Vector_7" fill-rule="evenodd" clip-rule="evenodd" d="M16.8563 12.7544C18.9787 15.0189 21.7031 23.2766 16.3984 27.4317C16.9256 27.379 17.4583 27.3652 17.9937 27.3929C19.0952 27.4455 20.2077 27.6697 21.2926 28.0738C22.8685 26.4185 23.8367 24.1762 23.8367 21.7124C23.8367 21.4799 23.8284 21.2501 23.8117 21.0232C23.6508 18.8528 22.7408 16.8929 21.3369 15.3981C20.1439 14.1275 18.5985 13.1945 16.8563 12.7544Z" fill="#3B9C43"/>
<path id="Vector_8" fill-rule="evenodd" clip-rule="evenodd" d="M26.7274 44.1547L21.5531 42.0979C21.4476 42.4495 21.334 42.79 21.2063 43.1277C20.2658 45.6413 18.7427 47.7672 16.8477 49.2427C17.0447 49.2538 17.2445 49.2593 17.4415 49.2593H17.4609C20.8263 49.2566 24.0502 47.6953 26.1282 45.01C26.3418 44.7361 26.5415 44.4509 26.7274 44.1547Z" fill="#3B9C43"/>
<path id="Vector_9" fill-rule="evenodd" clip-rule="evenodd" d="M22.2386 38.0785L28.2092 40.4508C29.2246 35.3739 26.5029 30.1418 21.509 28.157C21.4368 28.1293 21.3647 28.1016 21.2926 28.074C20.5906 27.811 19.8776 27.6255 19.1646 27.5148C19.5336 28.002 19.8747 28.5197 20.1854 29.0678C21.495 31.3738 22.2607 34.1752 22.2607 37.1954C22.2606 37.4915 22.2553 37.785 22.2386 38.0785Z" fill="#3B9C43"/>
<path id="Vector_10" fill-rule="evenodd" clip-rule="evenodd" d="M28.2094 40.4508L16.6594 35.861L8.17793 32.4921C7.82832 33.0457 7.52315 33.6409 7.2707 34.2721C7.01826 34.9088 6.82959 35.551 6.69922 36.1987L19.0121 41.0902L26.7277 44.1547C27.0801 43.5982 27.3853 43.0003 27.6377 42.3664C27.8903 41.7352 28.0789 41.093 28.2094 40.4508Z" fill="#3B9C43"/>
<path id="Vector_11" fill-rule="evenodd" clip-rule="evenodd" d="M21.5532 42.0979L26.7275 44.1548C27.0799 43.5983 27.3851 43.0004 27.6375 42.3665C27.8899 41.7353 28.0786 41.0931 28.209 40.4509L22.2384 38.0785C22.1691 39.4819 21.9333 40.8329 21.5532 42.0979Z" fill="#3B9C43"/>
<path id="Vector_12" d="M43.9024 5.92728C42.3646 3.2053 39.8678 1.24837 36.8716 0.416926C36.8709 0.416731 36.8703 0.416633 36.8697 0.416438C30.6678 -1.303 24.2169 2.33274 22.4903 8.5219L20.9547 14.0402C19.2222 12.6026 16.9971 11.7368 14.573 11.7368C12.1842 11.7368 9.8708 12.5928 8.05899 14.1473C7.75195 14.4107 7.7167 14.8731 7.97998 15.1801C8.24346 15.4871 8.70576 15.5224 9.01279 15.259C10.5593 13.9323 12.5339 13.2016 14.573 13.2016C19.2772 13.2016 23.1044 17.0196 23.1044 21.7123C23.1044 23.7465 22.3857 25.6851 21.0732 27.2222C17.3007 25.9944 13.2884 26.7974 10.3103 29.0838C7.66787 27.5621 6.04453 24.7792 6.04453 21.7123C6.04453 20.3336 6.36504 19.0165 6.99717 17.7975C7.1834 17.4384 7.04326 16.9963 6.68408 16.8101C6.3249 16.6239 5.88291 16.764 5.69668 17.1232C4.95547 18.5527 4.57959 20.0967 4.57959 21.7124C4.57959 25.1415 6.30947 28.2683 9.15596 30.097C8.07539 31.1802 7.19199 32.4933 6.59053 34.0007C5.43604 36.8954 5.47901 40.0659 6.71123 42.9278C7.94561 45.7944 10.2248 48.0085 13.1291 49.1621C14.5434 49.7239 16.0031 49.99 17.44 49.99C20.8984 49.99 24.2216 48.4476 26.4475 45.7788C26.7794 45.8075 27.1115 45.8224 27.4433 45.8224C29.7205 45.8224 31.9721 45.1509 33.9039 43.8777C36.2563 42.3272 37.9655 39.9884 38.717 37.2921L39.9045 33.0263C40.0129 32.6367 39.785 32.2328 39.3953 32.1244C39.0059 32.0159 38.6018 32.2438 38.4933 32.6335L37.3059 36.8993C36.0756 41.3143 31.9707 44.3465 27.4624 44.3554C27.789 43.8155 28.0768 43.2429 28.3181 42.6382C29.4733 39.7453 29.4318 36.5767 28.2014 33.7162C27.0714 31.0893 25.0627 29.0101 22.499 27.791C23.7838 26.1277 24.5065 24.11 24.5651 21.9923L40.247 26.3416L39.4173 29.3199C39.3087 29.7095 39.5366 30.1134 39.9263 30.222C39.9921 30.2404 40.0582 30.2491 40.1232 30.2491C40.4438 30.2491 40.7382 30.037 40.8284 29.713L44.9929 14.7644C45.8238 11.7812 45.4366 8.6428 43.9024 5.92728ZM26.9576 42.0951C26.7986 42.4934 26.617 42.876 26.4151 43.2424L7.55342 35.75C7.66026 35.3432 7.79277 34.9404 7.95098 34.5435C8.10879 34.1479 8.28965 33.7683 8.48985 33.4041L27.3529 40.8987C27.2465 41.302 27.1147 41.7014 26.9576 42.0951ZM13.6699 47.8008C11.1296 46.7917 9.13613 44.8554 8.05664 42.3485C7.34951 40.7064 7.09033 38.9481 7.28096 37.218L25.5992 44.4946C22.8883 48.0517 18.0302 49.5328 13.6699 47.8008ZM26.8557 34.2949C27.5629 35.9389 27.8207 37.6994 27.6274 39.4314L9.30332 32.151C11.2446 29.5987 14.2904 28.1132 17.4664 28.1132C18.7235 28.1132 20.0014 28.3461 21.2387 28.8376C23.7819 29.8487 25.7768 31.7868 26.8557 34.2949ZM43.5816 14.371L40.6399 24.9303L24.4897 20.4511C24.2374 18.4645 23.3971 16.6583 22.1491 15.212L23.9014 8.91517C25.4111 3.50325 31.0549 0.324446 36.4779 1.82806C39.0975 2.55462 41.2814 4.26634 42.627 6.64788C43.9687 9.02239 44.3075 11.7653 43.5816 14.371Z" fill="#3B9C43"/>
<path id="Vector_13" d="M16.9364 21.5425C17.3409 21.5425 17.6688 21.2146 17.6688 20.8101C17.6688 20.4056 17.3409 20.0776 16.9364 20.0776H16.917C16.5125 20.0776 16.1846 20.4056 16.1846 20.8101C16.1846 21.2146 16.5125 21.5425 16.917 21.5425H16.9364Z" fill="#3B9C43"/>
<path id="Vector_14" d="M14.8643 25.526H14.8837C15.2882 25.526 15.6161 25.1981 15.6161 24.7936C15.6161 24.3891 15.2882 24.0612 14.8837 24.0612H14.8643C14.4598 24.0612 14.1318 24.3891 14.1318 24.7936C14.1318 25.1981 14.4598 25.526 14.8643 25.526Z" fill="#3B9C43"/>
<path id="Vector_15" d="M10.9524 22.6027C11.3569 22.6027 11.6849 22.2747 11.6849 21.8702C11.6849 21.4658 11.3569 21.1378 10.9524 21.1378H10.9302C10.5257 21.1378 10.1978 21.4658 10.1978 21.8702C10.1978 22.2747 10.5257 22.6027 10.9302 22.6027H10.9524Z" fill="#3B9C43"/>
<path id="Vector_16" d="M13.6352 16.3793H13.6157C13.2112 16.3793 12.8833 16.7072 12.8833 17.1117C12.8833 17.5162 13.2112 17.8441 13.6157 17.8441H13.6352C14.0396 17.8441 14.3676 17.5162 14.3676 17.1117C14.3676 16.7072 14.0397 16.3793 13.6352 16.3793Z" fill="#3B9C43"/>
</g>
<defs>
<clipPath id="clip0_43_211">
<rect width="50" height="50" fill="white" transform="translate(0 -0.0100098)"/>
</clipPath>
</defs>
</svg>
